<mxfile host="app.diagrams.net" modified="2020-09-23T07:07:52.438Z" agent="5.0 (Windows NT 10.0; Win64; x64) AppleWebKit/537.36 (KHTML, like Gecko) Chrome/85.0.4183.121 Safari/537.36" etag="WcOiusnwLQI48-UX-jEy" version="13.7.1" type="github">
  <diagram id="kLTMy6dSGyXGjRNzcYHz" name="Page-1">
    <mxGraphModel dx="1422" dy="800" grid="1" gridSize="10" guides="1" tooltips="1" connect="1" arrows="1" fold="1" page="1" pageScale="1" pageWidth="827" pageHeight="1169" math="0" shadow="0">
      <root>
        <mxCell id="0" />
        <mxCell id="1" parent="0" />
        <mxCell id="CKG1FFBqy6NWSTHpzJYD-1" value="user&lt;br&gt;" style="shape=umlActor;verticalLabelPosition=bottom;verticalAlign=top;html=1;outlineConnect=0;" vertex="1" parent="1">
          <mxGeometry x="70" y="370" width="30" height="60" as="geometry" />
        </mxCell>
        <mxCell id="CKG1FFBqy6NWSTHpzJYD-15" value="i wanna read some goods" style="text;html=1;align=center;verticalAlign=middle;resizable=0;points=[];autosize=1;" vertex="1" parent="1">
          <mxGeometry x="100" y="390" width="150" height="20" as="geometry" />
        </mxCell>
        <mxCell id="CKG1FFBqy6NWSTHpzJYD-17" value="" style="endArrow=classic;html=1;" edge="1" parent="1">
          <mxGeometry width="50" height="50" relative="1" as="geometry">
            <mxPoint x="110" y="370" as="sourcePoint" />
            <mxPoint x="270" y="370" as="targetPoint" />
          </mxGeometry>
        </mxCell>
        <mxCell id="CKG1FFBqy6NWSTHpzJYD-18" value="name" style="shape=cube;whiteSpace=wrap;html=1;boundedLbl=1;backgroundOutline=1;darkOpacity=0.05;darkOpacity2=0.1;size=10;" vertex="1" parent="1">
          <mxGeometry x="270" y="350" width="50" height="40" as="geometry" />
        </mxCell>
        <mxCell id="CKG1FFBqy6NWSTHpzJYD-19" value="" style="endArrow=classic;html=1;exitX=0;exitY=0;exitDx=50;exitDy=25;exitPerimeter=0;" edge="1" parent="1" source="CKG1FFBqy6NWSTHpzJYD-18">
          <mxGeometry width="50" height="50" relative="1" as="geometry">
            <mxPoint x="340" y="400" as="sourcePoint" />
            <mxPoint x="400" y="375" as="targetPoint" />
            <Array as="points" />
          </mxGeometry>
        </mxCell>
        <mxCell id="CKG1FFBqy6NWSTHpzJYD-20" value="MediaServise" style="rounded=0;whiteSpace=wrap;html=1;" vertex="1" parent="1">
          <mxGeometry x="400" y="360" width="120" height="30" as="geometry" />
        </mxCell>
        <mxCell id="CKG1FFBqy6NWSTHpzJYD-21" value="wat is&amp;nbsp;this" style="text;html=1;align=center;verticalAlign=middle;resizable=0;points=[];autosize=1;" vertex="1" parent="1">
          <mxGeometry x="135" y="350" width="70" height="20" as="geometry" />
        </mxCell>
        <mxCell id="CKG1FFBqy6NWSTHpzJYD-22" value="little big data" style="shape=cylinder3;whiteSpace=wrap;html=1;boundedLbl=1;backgroundOutline=1;size=15;" vertex="1" parent="1">
          <mxGeometry x="430" y="250" width="60" height="60" as="geometry" />
        </mxCell>
        <mxCell id="CKG1FFBqy6NWSTHpzJYD-23" value="" style="endArrow=classic;startArrow=classic;html=1;entryX=0.5;entryY=1;entryDx=0;entryDy=0;entryPerimeter=0;exitX=0.5;exitY=0;exitDx=0;exitDy=0;" edge="1" parent="1" source="CKG1FFBqy6NWSTHpzJYD-20" target="CKG1FFBqy6NWSTHpzJYD-22">
          <mxGeometry width="50" height="50" relative="1" as="geometry">
            <mxPoint x="390" y="390" as="sourcePoint" />
            <mxPoint x="440" y="340" as="targetPoint" />
          </mxGeometry>
        </mxCell>
        <mxCell id="CKG1FFBqy6NWSTHpzJYD-24" style="edgeStyle=orthogonalEdgeStyle;rounded=0;orthogonalLoop=1;jettySize=auto;html=1;exitX=0.5;exitY=1;exitDx=0;exitDy=0;" edge="1" parent="1" source="CKG1FFBqy6NWSTHpzJYD-20" target="CKG1FFBqy6NWSTHpzJYD-20">
          <mxGeometry relative="1" as="geometry" />
        </mxCell>
        <mxCell id="CKG1FFBqy6NWSTHpzJYD-25" value="Data with" style="shape=cube;whiteSpace=wrap;html=1;boundedLbl=1;backgroundOutline=1;darkOpacity=0.05;darkOpacity2=0.1;size=10;" vertex="1" parent="1">
          <mxGeometry x="400" y="420" width="120" height="40" as="geometry" />
        </mxCell>
        <mxCell id="CKG1FFBqy6NWSTHpzJYD-26" value="" style="endArrow=classic;html=1;entryX=0;entryY=0;entryDx=120;entryDy=25;entryPerimeter=0;exitX=1;exitY=0.5;exitDx=0;exitDy=0;" edge="1" parent="1" source="CKG1FFBqy6NWSTHpzJYD-20" target="CKG1FFBqy6NWSTHpzJYD-25">
          <mxGeometry width="50" height="50" relative="1" as="geometry">
            <mxPoint x="560" y="430" as="sourcePoint" />
            <mxPoint x="610" y="380" as="targetPoint" />
            <Array as="points">
              <mxPoint x="580" y="375" />
              <mxPoint x="580" y="445" />
            </Array>
          </mxGeometry>
        </mxCell>
        <mxCell id="CKG1FFBqy6NWSTHpzJYD-27" value="" style="endArrow=classic;html=1;exitX=0;exitY=0;exitDx=0;exitDy=15;exitPerimeter=0;" edge="1" parent="1" source="CKG1FFBqy6NWSTHpzJYD-25">
          <mxGeometry width="50" height="50" relative="1" as="geometry">
            <mxPoint x="400" y="450" as="sourcePoint" />
            <mxPoint x="120" y="435" as="targetPoint" />
          </mxGeometry>
        </mxCell>
        <mxCell id="CKG1FFBqy6NWSTHpzJYD-28" value="" style="endArrow=classic;html=1;exitX=1;exitY=0.25;exitDx=0;exitDy=0;" edge="1" parent="1" source="CKG1FFBqy6NWSTHpzJYD-20">
          <mxGeometry width="50" height="50" relative="1" as="geometry">
            <mxPoint x="390" y="390" as="sourcePoint" />
            <mxPoint x="600" y="250" as="targetPoint" />
          </mxGeometry>
        </mxCell>
        <mxCell id="CKG1FFBqy6NWSTHpzJYD-29" value="is it video, photo or other content" style="text;html=1;align=center;verticalAlign=middle;resizable=0;points=[];autosize=1;" vertex="1" parent="1">
          <mxGeometry x="565" y="230" width="190" height="20" as="geometry" />
        </mxCell>
        <mxCell id="CKG1FFBqy6NWSTHpzJYD-30" value="it will change how site looks" style="text;html=1;align=center;verticalAlign=middle;resizable=0;points=[];autosize=1;" vertex="1" parent="1">
          <mxGeometry x="625" y="250" width="160" height="20" as="geometry" />
        </mxCell>
      </root>
    </mxGraphModel>
  </diagram>
</mxfile>
